<?xml version="1.0" encoding="UTF-8" standalone="no"?>
<!-- Generator: Adobe Illustrator 16.0.0, SVG Export Plug-In . SVG Version: 6.00 Build 0)  -->

<svg
   xmlns:dc="http://purl.org/dc/elements/1.1/"
   xmlns:cc="http://creativecommons.org/ns#"
   xmlns:rdf="http://www.w3.org/1999/02/22-rdf-syntax-ns#"
   xmlns:svg="http://www.w3.org/2000/svg"
   xmlns="http://www.w3.org/2000/svg"
   xmlns:sodipodi="http://sodipodi.sourceforge.net/DTD/sodipodi-0.dtd"
   xmlns:inkscape="http://www.inkscape.org/namespaces/inkscape"
   version="1.1"
   id="Layer_1"
   x="0px"
   y="0px"
   width="16"
   height="16"
   viewBox="0 0 16 16.000001"
   enable-background="new 0 0 266.893 266.895"
   xml:space="preserve"
   inkscape:version="0.91 r13725"
   sodipodi:docname="facebook.svg"><metadata
     id="metadata4192"><rdf:RDF><cc:Work
         rdf:about=""><dc:format>image/svg+xml</dc:format><dc:type
           rdf:resource="http://purl.org/dc/dcmitype/StillImage" /><dc:title></dc:title></cc:Work></rdf:RDF></metadata><defs
     id="defs4190" /><sodipodi:namedview
     pagecolor="#ffffff"
     bordercolor="#666666"
     borderopacity="1"
     objecttolerance="10"
     gridtolerance="10"
     guidetolerance="10"
     inkscape:pageopacity="0"
     inkscape:pageshadow="2"
     inkscape:window-width="1920"
     inkscape:window-height="1025"
     id="namedview4188"
     showgrid="false"
     inkscape:zoom="20.008133"
     inkscape:cx="21.072314"
     inkscape:cy="5.0281069"
     inkscape:window-x="0"
     inkscape:window-y="0"
     inkscape:window-maximized="1"
     inkscape:current-layer="Layer_1" /><path
     id="Blue_1_"
     d="m 15.024217,15.760244 c 0.473655,0 0.857752,-0.384098 0.857752,-0.857873 l 0,-13.8266777 c 0,-0.47383525 -0.384037,-0.85781247 -0.857752,-0.85781247 l -13.8266774,0 c -0.47383523,0 -0.85781245,0.38397722 -0.85781245,0.85781247 l 0,13.8266777 c 0,0.473715 0.38391691,0.857873 0.85781245,0.857873 l 13.8266774,0 z"
     inkscape:connector-curvature="0"
     style="fill:#999999" /><path
     id="f"
     d="m 11.063649,15.760244 0,-6.0188597 2.020238,0 0.302502,-2.3456564 -2.32274,0 0,-1.4975534 c 0,-0.6791216 0.188582,-1.1419206 1.162425,-1.1419206 l 1.242092,-5.428e-4 0,-2.0979738 c -0.214815,-0.028586 -0.952134,-0.092451 -1.809946,-0.092451 -1.7908283,0 -3.0168777,1.0931319 -3.0168777,3.1005843 l 0,1.7298575 -2.025424,0 0,2.3456564 2.025424,0 0,6.0188597 2.4223067,0 z"
     inkscape:connector-curvature="0"
     style="fill:#ffffff" /></svg>