<?xml version="1.0" encoding="UTF-8" standalone="no"?>
<!-- Generator: Adobe Illustrator 19.0.1, SVG Export Plug-In . SVG Version: 6.00 Build 0)  -->

<svg
   xmlns:dc="http://purl.org/dc/elements/1.1/"
   xmlns:cc="http://creativecommons.org/ns#"
   xmlns:rdf="http://www.w3.org/1999/02/22-rdf-syntax-ns#"
   xmlns:svg="http://www.w3.org/2000/svg"
   xmlns="http://www.w3.org/2000/svg"
   xmlns:xlink="http://www.w3.org/1999/xlink"
   xmlns:sodipodi="http://sodipodi.sourceforge.net/DTD/sodipodi-0.dtd"
   xmlns:inkscape="http://www.inkscape.org/namespaces/inkscape"
   version="1.1"
   id="Layer_1"
   x="0px"
   y="0px"
   viewBox="-269 366 16 16"
   xml:space="preserve"
   inkscape:version="0.91 r13725"
   sodipodi:docname="Icon_Twitter.svg"
   width="16"
   height="16"><metadata
     id="metadata11"><rdf:RDF><cc:Work
         rdf:about=""><dc:format>image/svg+xml</dc:format><dc:type
           rdf:resource="http://purl.org/dc/dcmitype/StillImage" /><dc:title /></cc:Work></rdf:RDF></metadata><defs
     id="defs9"><linearGradient
       id="black-gradient"><stop
         offset="0"
         style="stop-color:#333333;stop-opacity:1"
         id="black1" /><stop
         offset="1"
         style="stop-color:#212121;stop-opacity:1"
         id="black2" /></linearGradient><linearGradient
       id="blue-gradient"><stop
         offset="0"
         style="stop-color:#33ccff;stop-opacity:1"
         id="blue1" /><stop
         offset="1"
         style="stop-color:#06c1ff;stop-opacity:1"
         id="blue2" /></linearGradient><linearGradient
       gradientTransform="matrix(4.2619852,0,0,4.2619852,-14710.634,4471.6445)"
       gradientUnits="userSpaceOnUse"
       xlink:href="#black-gradient"
       y2="-1028.5905"
       x2="3494.25"
       y1="-1044.3878"
       x1="3494.25"
       id="black" /><linearGradient
       gradientTransform="matrix(4.2619852,0,0,4.2619852,-14725.634,4456.5085)"
       gradientUnits="userSpaceOnUse"
       xlink:href="#blue-gradient"
       y2="-1026.9196"
       x2="3550.75"
       y1="-1045.5128"
       x1="3550.75"
       id="blue" /></defs><sodipodi:namedview
     pagecolor="#ffffff"
     bordercolor="#666666"
     borderopacity="1"
     objecttolerance="10"
     gridtolerance="10"
     guidetolerance="10"
     inkscape:pageopacity="0"
     inkscape:pageshadow="2"
     inkscape:window-width="1920"
     inkscape:window-height="1025"
     id="namedview7"
     showgrid="false"
     borderlayer="true"
     inkscape:showpageshadow="false"
     inkscape:zoom="10.960735"
     inkscape:cx="-15.20289"
     inkscape:cy="25.081045"
     inkscape:window-x="0"
     inkscape:window-y="0"
     inkscape:window-maximized="1"
     inkscape:current-layer="Layer_1"
     fit-margin-top="0"
     fit-margin-left="0"
     fit-margin-right="0"
     fit-margin-bottom="0" /><style
     type="text/css"
     id="style3">
	.st0{fill:#424242;}
</style><g
     inkscape:groupmode="layer"
     id="layer1"
     inkscape:label="Layer 1"
     style="display:none"
     transform="translate(-0.49999911,-44.500005)" /><g
     inkscape:groupmode="layer"
     id="layer2"
     inkscape:label="Layer 2"
     style="display:none"
     transform="translate(-0.49999911,-44.500005)" /><path
     class="st0"
     d="m -261,382 c -4.42667,0 -8,-3.57333 -8,-8 0,-4.42666 3.57333,-8 8,-8 4.42667,0 8,3.57334 8,8 0,4.42667 -3.57333,8 -8,8 z"
     id="path5"
     inkscape:connector-curvature="0"
     style="fill:#999999"
     sodipodi:nodetypes="sssss" /><path
     sodipodi:nodetypes="ccscscscscsscsscscsscsccc"
     inkscape:connector-curvature="0"
     style="display:inline;opacity:1;fill:#ffffff;fill-opacity:1;fill-rule:evenodd;stroke:none"
     d="m -258.97186,373.46286 c 0.28429,0 0.52858,-0.10819 0.73188,-0.32413 0.20345,-0.21621 0.30502,-0.47574 0.30502,-0.7781 0,-0.30264 -0.10157,-0.562 -0.30577,-0.77805 -0.20403,-0.21622 -0.44875,-0.32446 -0.73404,-0.32446 l -3.07167,0 0,-1.10233 c 0,-0.30291 -0.10114,-0.56206 -0.30322,-0.77783 -0.20133,-0.21671 -0.44424,-0.32462 -0.72662,-0.32462 -0.29097,0 -0.53754,0.10611 -0.73936,0.31805 -0.20175,0.21217 -0.30274,0.47394 -0.30274,0.78521 l 0,4.40011 c 0,0.90856 0.30274,1.68512 0.90892,2.32961 0.6057,0.64497 1.33519,0.96702 2.18862,0.96702 l 2.04925,0 c 0.28465,0 0.52815,-0.10797 0.7315,-0.32402 0.2034,-0.21572 0.30497,-0.47569 0.30497,-0.77816 0,-0.30263 -0.10157,-0.56178 -0.30497,-0.77793 -0.20335,-0.21627 -0.44764,-0.32468 -0.73193,-0.32468 l -2.04972,0 c -0.28465,0 -0.52677,-0.10616 -0.7262,-0.31822 -0.19937,-0.21298 -0.29882,-0.47098 -0.29882,-0.7746 l 0,-1.09298 3.0749,0 z"
     id="twitter" /><rect
     style="fill:none"
     id="rect3343"
     width="7.1284757"
     height="8.442256"
     x="-264.12149"
     y="369.43112" /><rect
     style="fill:none"
     id="rect3345"
     width="0.12164634"
     height="5.6200609"
     x="-260.91003"
     y="369.38248" /><rect
     style="fill:none"
     id="rect3347"
     width="12.845854"
     height="10.145305"
     x="-267.55194"
     y="367.19284" /></svg>