<?xml version="1.0" encoding="UTF-8" standalone="no"?>
<svg
   xmlns:dc="http://purl.org/dc/elements/1.1/"
   xmlns:cc="http://creativecommons.org/ns#"
   xmlns:rdf="http://www.w3.org/1999/02/22-rdf-syntax-ns#"
   xmlns:svg="http://www.w3.org/2000/svg"
   xmlns="http://www.w3.org/2000/svg"
   viewBox="0 0 16 16"
   height="16"
   width="16"
   xml:space="preserve"
   version="1.1"
   id="svg2"><metadata
     id="metadata8"><rdf:RDF><cc:Work
         rdf:about=""><dc:format>image/svg+xml</dc:format><dc:type
           rdf:resource="http://purl.org/dc/dcmitype/StillImage" /><dc:title></dc:title></cc:Work></rdf:RDF></metadata><defs
     id="defs6" /><g
     transform="matrix(1.25,0,0,-1.25,0,16.000024)"
     id="g10"><g
       transform="matrix(0.0028072,0,0,0.0028072,0.00113898,0)"
       id="g12"><path
         id="path14"
         style="fill:#100f0d;fill-opacity:1;fill-rule:nonzero;stroke:none"
         d="m 2281.4,4562.8 c -619.59,0 -697.28,-2.61 -940.61,-13.73 C 1097.95,4537.98 932.113,4499.42 787.008,4443.03 636.977,4384.73 509.754,4306.72 382.922,4179.89 256.09,4053.06 178.078,3925.82 119.785,3775.8 63.375,3630.68 24.8125,3464.84 13.7383,3222.01 2.625,2978.68 0.0117188,2901 0.0117188,2281.41 0.0117188,1661.8 2.625,1584.12 13.7383,1340.79 24.8125,1097.96 63.375,932.121 119.785,787 178.078,636.98 256.09,509.742 382.922,382.91 509.754,256.082 636.977,178.07 787.008,119.77 932.113,63.3789 1097.95,24.8203 1340.79,13.7305 1584.12,2.62891 1661.81,0 2281.4,0 c 619.59,0 697.29,2.62891 940.62,13.7305 242.83,11.0898 408.67,49.6484 553.78,106.0395 150.03,58.3 277.25,136.312 404.08,263.14 126.83,126.832 204.84,254.07 263.14,404.09 56.41,145.121 94.97,310.96 106.05,553.79 11.11,243.33 13.72,321.01 13.72,940.62 0,619.59 -2.61,697.27 -13.72,940.6 -11.08,242.83 -49.64,408.67 -106.05,553.79 -58.3,150.02 -136.31,277.26 -263.14,404.09 -126.83,126.83 -254.05,204.84 -404.08,263.14 -145.11,56.39 -310.95,94.95 -553.78,106.04 -243.33,11.12 -321.03,13.73 -940.62,13.73 m 0,-411.05 c 609.16,0 681.3,-2.33 921.88,-13.3 222.43,-10.15 343.23,-47.33 423.62,-78.56 106.5,-41.39 182.5,-90.84 262.32,-170.66 79.85,-79.84 129.29,-155.83 170.66,-262.32 31.23,-80.39 68.41,-201.2 78.56,-423.62 10.97,-240.58 13.3,-312.72 13.3,-921.88 0,-609.18 -2.33,-681.32 -13.3,-921.88 -10.15,-222.44 -47.33,-343.25 -78.56,-423.639 C 4018.51,829.41 3969.07,753.41 3889.22,673.57 3809.4,593.742 3733.4,544.301 3626.9,502.922 3546.51,471.68 3425.71,434.5 3203.28,424.371 2962.74,413.379 2890.61,411.07 2281.4,411.07 c -609.21,0 -681.34,2.309 -921.88,13.301 -222.42,10.129 -343.23,47.309 -423.618,78.551 -106.492,41.379 -182.496,90.82 -262.32,170.648 -79.824,79.84 -129.266,155.84 -170.656,262.321 -31.235,80.389 -68.41,201.199 -78.563,423.639 -10.968,240.56 -13.297,312.7 -13.297,921.88 0,609.16 2.329,681.3 13.297,921.88 10.153,222.42 47.328,343.23 78.563,423.62 41.39,106.49 90.832,182.48 170.656,262.32 79.824,79.82 155.828,129.27 262.32,170.66 80.388,31.23 201.198,68.41 423.618,78.56 240.58,10.97 312.72,13.3 921.88,13.3" /><path
         id="path16"
         style="fill:#100f0d;fill-opacity:1;fill-rule:nonzero;stroke:none"
         d="m 2281.4,1520.94 c -419.99,0 -760.47,340.47 -760.47,760.47 0,419.99 340.48,760.46 760.47,760.46 420,0 760.47,-340.47 760.47,-760.46 0,-420 -340.47,-760.47 -760.47,-760.47 m 0,1931.99 c -647.01,0 -1171.52,-524.52 -1171.52,-1171.52 0,-647.03 524.51,-1171.53 1171.52,-1171.53 647.01,0 1171.52,524.5 1171.52,1171.53 0,647 -524.51,1171.52 -1171.52,1171.52" /><path
         id="path18"
         style="fill:#100f0d;fill-opacity:1;fill-rule:nonzero;stroke:none"
         d="m 3772.99,3499.22 c 0,-151.19 -122.57,-273.77 -273.77,-273.77 -151.19,0 -273.77,122.58 -273.77,273.77 0,151.2 122.58,273.76 273.77,273.76 151.2,0 273.77,-122.56 273.77,-273.76" /></g></g></svg>