<?xml version="1.0" encoding="UTF-8" standalone="no"?>
<!-- Created with Inkscape (http://www.inkscape.org/) -->

<svg
   xmlns:dc="http://purl.org/dc/elements/1.1/"
   xmlns:cc="http://creativecommons.org/ns#"
   xmlns:rdf="http://www.w3.org/1999/02/22-rdf-syntax-ns#"
   xmlns:svg="http://www.w3.org/2000/svg"
   xmlns="http://www.w3.org/2000/svg"
   xmlns:sodipodi="http://sodipodi.sourceforge.net/DTD/sodipodi-0.dtd"
   xmlns:inkscape="http://www.inkscape.org/namespaces/inkscape"
   width="7.0239797mm"
   height="5.0851955mm"
   viewBox="0 0 24.888117 18.01841"
   id="svg4736"
   version="1.1"
   inkscape:version="0.91 r13725"
   sodipodi:docname="closequote.svg">
  <defs
     id="defs4738" />
  <sodipodi:namedview
     id="base"
     pagecolor="#ffffff"
     bordercolor="#666666"
     borderopacity="1.0"
     inkscape:pageopacity="0.0"
     inkscape:pageshadow="2"
     inkscape:zoom="7.9195959"
     inkscape:cx="30.885115"
     inkscape:cy="9.1128354"
     inkscape:document-units="px"
     inkscape:current-layer="layer1"
     showgrid="false"
     fit-margin-top="0"
     fit-margin-left="0"
     fit-margin-right="0"
     fit-margin-bottom="0"
     inkscape:window-width="1920"
     inkscape:window-height="1025"
     inkscape:window-x="0"
     inkscape:window-y="0"
     inkscape:window-maximized="1" />
  <metadata
     id="metadata4741">
    <rdf:RDF>
      <cc:Work
         rdf:about="">
        <dc:format>image/svg+xml</dc:format>
        <dc:type
           rdf:resource="http://purl.org/dc/dcmitype/StillImage" />
        <dc:title></dc:title>
      </cc:Work>
    </rdf:RDF>
  </metadata>
  <g
     inkscape:label="Layer 1"
     inkscape:groupmode="layer"
     id="layer1"
     transform="translate(298.63002,-310.39123)">
    <path
       inkscape:connector-curvature="0"
       d="m -273.7419,316.06746 q 0,2.06673 -0.66951,3.92971 -0.64039,1.86296 -2.06673,3.46395 -1.39723,1.57188 -3.63862,2.85268 -2.24138,1.25168 -5.41425,2.09584 l 0,-2.70713 q 1.65921,-0.49485 2.76535,-1.19346 1.13524,-0.72772 1.80475,-1.48456 0.69862,-0.78594 0.9897,-1.54277 0.3202,-0.75683 0.3202,-1.3099 0,-0.61129 -0.34931,-0.9897 -0.3202,-0.37842 -0.81505,-0.69861 -0.49485,-0.32021 -1.07703,-0.61129 -0.55307,-0.29109 -1.04792,-0.75684 -0.49485,-0.46574 -0.84415,-1.13524 -0.32021,-0.66951 -0.32021,-1.71743 0,-0.93148 0.34932,-1.65921 0.3493,-0.72772 0.9897,-1.22257 0.64039,-0.49485 1.48455,-0.72773 0.87327,-0.26197 1.89208,-0.26197 1.07703,0 2.09584,0.37841 1.01882,0.34931 1.80476,1.07703 0.78593,0.72772 1.25168,1.77564 0.49485,1.04792 0.49485,2.44515 z m -13.04079,0 q 0,2.06673 -0.66951,3.92971 -0.66951,1.86296 -2.09584,3.46395 -1.42633,1.57188 -3.66772,2.85268 -2.24139,1.25168 -5.41426,2.09584 l 0,-2.70713 q 1.65921,-0.49485 2.76535,-1.19346 1.13525,-0.72772 1.80475,-1.48456 0.69861,-0.78594 0.98971,-1.54277 0.32019,-0.75683 0.32019,-1.3099 0,-0.61129 -0.34931,-0.9897 -0.3202,-0.37842 -0.81505,-0.69861 -0.49485,-0.32021 -1.07703,-0.61129 -0.55306,-0.29109 -1.04792,-0.75684 -0.49485,-0.46574 -0.84416,-1.13524 -0.3202,-0.66951 -0.3202,-1.71743 0,-0.93148 0.34931,-1.65921 0.34931,-0.72772 0.98971,-1.22257 0.64039,-0.49485 1.48455,-0.72773 0.87327,-0.26197 1.89208,-0.26197 1.07703,0 2.09584,0.37841 1.01882,0.34931 1.80475,1.07703 0.81506,0.72772 1.30991,1.77564 0.49485,1.04792 0.49485,2.44515 z"
       style="font-weight:bold;font-size:144px;font-family:'Times New Roman';fill:#000000"
       id="path4160" />
  </g>
</svg>
