<?xml version="1.0" encoding="UTF-8" standalone="no"?>
<!-- Created with Inkscape (http://www.inkscape.org/) -->

<svg
   xmlns:dc="http://purl.org/dc/elements/1.1/"
   xmlns:cc="http://creativecommons.org/ns#"
   xmlns:rdf="http://www.w3.org/1999/02/22-rdf-syntax-ns#"
   xmlns:svg="http://www.w3.org/2000/svg"
   xmlns="http://www.w3.org/2000/svg"
   xmlns:sodipodi="http://sodipodi.sourceforge.net/DTD/sodipodi-0.dtd"
   xmlns:inkscape="http://www.inkscape.org/namespaces/inkscape"
   width="7.0728474mm"
   height="5.1026711mm"
   viewBox="0 0 25.06127 18.08033"
   id="svg4171"
   version="1.1"
   inkscape:version="0.91 r13725"
   sodipodi:docname="openquote.svg">
  <defs
     id="defs4173" />
  <sodipodi:namedview
     id="base"
     pagecolor="#ffffff"
     bordercolor="#666666"
     borderopacity="1.0"
     inkscape:pageopacity="0.0"
     inkscape:pageshadow="2"
     inkscape:zoom="11.2"
     inkscape:cx="4.6633316"
     inkscape:cy="15.597544"
     inkscape:document-units="px"
     inkscape:current-layer="layer1"
     showgrid="false"
     fit-margin-top="0"
     fit-margin-left="0"
     fit-margin-right="0"
     fit-margin-bottom="0"
     inkscape:window-width="1920"
     inkscape:window-height="1025"
     inkscape:window-x="0"
     inkscape:window-y="0"
     inkscape:window-maximized="1" />
  <metadata
     id="metadata4176">
    <rdf:RDF>
      <cc:Work
         rdf:about="">
        <dc:format>image/svg+xml</dc:format>
        <dc:type
           rdf:resource="http://purl.org/dc/dcmitype/StillImage" />
        <dc:title></dc:title>
      </cc:Work>
    </rdf:RDF>
  </metadata>
  <g
     inkscape:label="Layer 1"
     inkscape:groupmode="layer"
     id="layer1"
     transform="translate(-266.9788,-436.04359)">
    <path
       inkscape:connector-curvature="0"
       d="m 266.9788,448.4866 q 0,-2.07385 0.6718,-3.94322 0.67181,-1.89857 2.10304,-3.50507 1.43124,-1.60649 3.68033,-2.86247 2.2783,-1.28519 5.46208,-2.13225 l 0,2.68722 q -1.66491,0.49656 -2.80406,1.22677 -1.13915,0.70101 -1.84016,1.48966 -0.67181,0.78864 -0.99312,1.54807 -0.29208,0.75944 -0.29208,1.3144 0,0.61339 0.3213,0.99311 0.3505,0.37972 0.84706,0.70101 0.49655,0.29209 1.08073,0.61339 0.58418,0.2921 1.08073,0.75944 0.49655,0.43813 0.81786,1.10994 0.3505,0.6718 0.3505,1.72332 0,0.93469 -0.37972,1.66491 -0.3505,0.73023 -0.9931,1.22678 -0.61338,0.49655 -1.48965,0.75943 -0.87628,0.26288 -1.86938,0.26288 -1.08073,0 -2.13225,-0.35051 -1.02231,-0.37971 -1.84017,-1.08073 -0.78864,-0.73022 -1.28518,-1.78175 -0.49656,-1.05151 -0.49656,-2.42433 z m 13.14402,0 q 0,-2.07385 0.67181,-3.94322 0.67181,-1.89857 2.10304,-3.50507 1.43124,-1.60649 3.68033,-2.86247 2.2783,-1.28519 5.46207,-2.13225 l 0,2.68722 q -1.6649,0.49656 -2.80405,1.22677 -1.13916,0.70101 -1.84017,1.48966 -0.67181,0.78864 -0.99311,1.54807 -0.29208,0.75944 -0.29208,1.3144 0,0.61339 0.3213,0.99311 0.3505,0.37972 0.84705,0.70101 0.49655,0.29209 1.08074,0.61339 0.58417,0.2921 1.08073,0.75944 0.49655,0.43813 0.81785,1.10994 0.35051,0.6718 0.35051,1.72332 0,0.93469 -0.37973,1.66491 -0.35051,0.73023 -0.99309,1.22678 -0.61339,0.49655 -1.48966,0.75943 -0.87627,0.26288 -1.86938,0.26288 -1.08072,0 -2.13225,-0.35051 -1.02231,-0.37971 -1.84016,-1.08073 -0.78864,-0.73022 -1.2852,-1.78175 -0.49655,-1.05151 -0.49655,-2.42433 z"
       style="font-weight:bold;font-size:144px;font-family:'Times New Roman';fill:#000000"
       id="path4150" />
  </g>
</svg>
